# xmcd
#
# Track frame offsets:
# 150
# 10832
# 21319
# 35993
# 50310
# 62151
# 77436
# 88256
# 100305
# 107964
# 126391
# 137481
#
# Disc length: 2074 seconds
#
# Revision: 0
# Processed by: cddbd v1.5.1PL0 Copyright (c) Steve Scherf et al.
# Submitted via: Audion 3.0.2 (http://www.panic.com/audion/)
#
DISCID=a308180c
DTITLE=Low Profile Band - Climbing the Mountain
DYEAR=1900
DGENRE=
TTITLE0=I'll Never Shed Another Tear
TTITLE1=Best Female Actress
TTITLE2=Don't Bring Up My Past
TTITLE3=Starlight Waltz
TTITLE4=Room at the Top of the Stairs
TTITLE5=Rose of My Heart
TTITLE6=Gathering Flowers
TTITLE7=Don't Stop Being You
TTITLE8=Mustang Country
TTITLE9=Don't Expect to Walk Back In
TTITLE10=Your Love is Like a Flower
TTITLE11=Before the Weekend's Over
EXTD=
EXTT0=
EXTT1=
EXTT2=
EXTT3=
EXTT4=
EXTT5=
EXTT6=
EXTT7=
EXTT8=
EXTT9=
EXTT10=
EXTT11=
PLAYORDER=
